<svg xmlns="http://www.w3.org/2000/svg" xmlns:xlink="http://www.w3.org/1999/xlink" xmlns:xodm="http://www.corel.com/coreldraw/odm/2003" xml:space="preserve" version="1.1" style="shape-rendering:geometricPrecision;text-rendering:geometricPrecision;image-rendering:optimizeQuality;" viewBox="0 0 8.4666 10.58325" x="0px" y="0px" fill-rule="evenodd" clip-rule="evenodd"><defs><style type="text/css">
   
    .fil0 {fill:rgb(252, 243, 226);fill-rule:nonzero}
   
  </style></defs><g><path class="fil0" d="M2.513 5.8062l0.3542 -0.9481 -1.5593 -1.5013 0.3081 2.4494 0.897 0zm-1.0457 0.5316l5.5318 0c0.0935,0 0.1694,0.0759 0.1694,0.1694l0 1.0366c0,0.0935 -0.0759,0.1694 -0.1694,0.1694l-5.5318 0c-0.0935,0 -0.1694,-0.0759 -0.1694,-0.1694l0 -1.0366c0,-0.0935 0.0759,-0.1694 0.1694,-0.1694zm5.3624 0.3388l-5.193 0 0 0.6978 5.193 0 0 -0.6978zm-5.8717 -4.722c0.1938,0 0.3698,0.079 0.4972,0.2063 0.1279,0.128 0.2069,0.304 0.2069,0.4978 0,0.1613 -0.0547,0.3103 -0.1465,0.4292l1.4804 1.4253 0.6956 -1.8621c-0.125,-0.0778 -0.2321,-0.1818 -0.3134,-0.3041 -0.1081,-0.1628 -0.1713,-0.358 -0.1713,-0.5672 0,-0.2832 0.115,-0.54 0.3007,-0.7257 0.1857,-0.1857 0.4424,-0.3007 0.7256,-0.3007 0.2832,0 0.5399,0.115 0.7256,0.3007 0.1857,0.1857 0.3007,0.4425 0.3007,0.7257 0,0.2092 -0.0632,0.4044 -0.1713,0.5672 -0.0813,0.1223 -0.1884,0.2263 -0.3134,0.3041l0.6956 1.8621 1.4805 -1.4255c-0.0919,-0.1192 -0.1464,-0.2679 -0.1464,-0.429 0,-0.1938 0.079,-0.3698 0.2063,-0.4972 0.1274,-0.128 0.3036,-0.2069 0.4978,-0.2069 0.1943,0 0.3704,0.0789 0.4978,0.2063 0.1274,0.1274 0.2063,0.3035 0.2063,0.4978 0,0.1942 -0.0789,0.3704 -0.2063,0.4978l-0.0102 0.0094c-0.1266,0.1218 -0.2986,0.1969 -0.4876,0.1969l-0.0109 -0.0001 -0.3293 2.6182c-0.0028,0.0911 -0.0776,0.1641 -0.1693,0.1641l-5.5318 0c-0.084,-0.0007 -0.1569,-0.0634 -0.1674,-0.1489l-0.3312 -2.6334 -0.0107 0.0001c-0.1938,0 -0.3698,-0.079 -0.4972,-0.2063 -0.128,-0.1274 -0.2069,-0.3036 -0.2069,-0.4978 0,-0.1943 0.0789,-0.3704 0.2063,-0.4978 0.1274,-0.1274 0.3035,-0.2063 0.4978,-0.2063zm0.2587 0.4454c-0.066,-0.0658 -0.1576,-0.1066 -0.2587,-0.1066 -0.101,0 -0.1924,0.0409 -0.2584,0.1069 -0.066,0.066 -0.1069,0.1574 -0.1069,0.2584 0,0.1009 0.0409,0.1924 0.1069,0.2584 0.0657,0.0661 0.1573,0.1069 0.2584,0.1069 0.1011,0 0.1927,-0.0408 0.2587,-0.1066 0.0658,-0.066 0.1066,-0.1576 0.1066,-0.2587 0,-0.1011 -0.0408,-0.1927 -0.1066,-0.2587zm6.5503 0.0003c-0.066,-0.066 -0.1574,-0.1069 -0.2584,-0.1069 -0.1009,0 -0.1924,0.0409 -0.2584,0.1069 -0.0661,0.0657 -0.1069,0.1573 -0.1069,0.2584 0,0.1011 0.0408,0.1927 0.1066,0.2587 0.066,0.0658 0.1576,0.1066 0.2587,0.1066 0.0977,0 0.1864,-0.038 0.2518,-0.0999l0.0066 -0.007c0.066,-0.066 0.1069,-0.1575 0.1069,-0.2584 0,-0.101 -0.0409,-0.1924 -0.1069,-0.2584zm-2.1678 2.4578l0.3542 0.9481 0.897 0 0.3081 -2.4494 -1.5593 1.5013zm-0.0061 0.9481l-1.1847 -3.1711c-0.0357,-0.0862 0.0051,-0.1852 0.0913,-0.2209 0.1254,-0.0525 0.2321,-0.1417 0.3067,-0.2538 0.0721,-0.1086 0.1143,-0.2395 0.1143,-0.3806 0,-0.1899 -0.077,-0.362 -0.2013,-0.4863 -0.1243,-0.1243 -0.2963,-0.2013 -0.4862,-0.2013 -0.1899,0 -0.3619,0.077 -0.4862,0.2013 -0.1243,0.1243 -0.2013,0.2964 -0.2013,0.4863 0,0.1411 0.0422,0.272 0.1143,0.3806 0.0746,0.1121 0.1813,0.2013 0.3067,0.2538 0.0833,0.0349 0.1251,0.1297 0.0933,0.215l-1.1868 3.177 2.7199 0z"/></g></svg>